<?xml version="1.0" encoding="utf-8"?>
<!-- Generator: Adobe Illustrator 21.0.2, SVG Export Plug-In . SVG Version: 6.00 Build 0)  -->
<svg version="1.1" id="Layer_1" xmlns="http://www.w3.org/2000/svg" xmlns:xlink="http://www.w3.org/1999/xlink" x="0px" y="0px"
	 viewBox="0 0 190 69" style="enable-background:new 0 0 190 69;" xml:space="preserve">
<style type="text/css">
	.st0{fill-rule:evenodd;clip-rule:evenodd;fill:#FCB823;}
	.st1{fill:#FFFFFF;}
</style>
<g>
	<path class="st0" d="M123.8,49.1V12.9c0-12.3,12.9-15,22.2-11.4v6.9c-6.3-2.6-13.5-2-13.5,6h10.3v6.9h-10.3V49L123.8,49.1z"/>
	<path class="st0" d="M164.7,9h6.4l1.3,5.4h8v6.9h-7v16c0,3.2,1.4,4.8,4.2,4.8h4.4V49h-8.6c-5.8,0-8.7-3.1-8.7-9.3V9z"/>
	<rect x="149.4" y="14.4" class="st0" width="8.7" height="34.6"/>
	<rect x="149.4" y="1.8" class="st0" width="8.7" height="7.1"/>
	<path class="st0" d="M189.3,49c-7.6,12-21.1,20-36.4,20c-15.3,0-28.8-8-36.4-20c9,8.3,22,13.5,36.4,13.5
		C167.3,62.4,180.3,57.2,189.3,49"/>
	<path class="st1" d="M1.2,41v-4.7c2.5,1,5.4,1.5,8.7,1.5c2.4,0,3.7-0.8,3.7-2.4c0-1.4-0.8-2.1-2.5-2.1H7c-4.6,0-6.9-2.3-6.9-6.9
		c0-4.7,3.3-7.1,10-7.1c2.8,0,5.5,0.4,8,1.3v4.7c-2.5-1-5.2-1.5-8.2-1.5c-3.1,0-4.6,0.8-4.6,2.4c0,1.4,0.9,2.1,2.7,2.1h3.7
		c5,0,7.5,2.3,7.5,6.9c0,4.7-3.2,7.1-9.6,7.1C6.6,42.3,3.7,41.9,1.2,41 M23.2,42.1V19.5h4.4l0.7,2.8c2.6-1.9,5.2-2.8,7.7-2.8
		c2.8,0,4.9,1,6,3.1c2.9-2.1,5.6-3.1,8.1-3.1c4.8,0,7.1,2.9,7.1,8.6v14h-5.7V27.9c0-2.5-1.1-3.8-3.2-3.8c-1.7,0-3.5,1-5.3,2.9v15
		h-5.7V27.9c0-2.5-1-3.8-3.1-3.8c-1.8,0-3.6,1-5.3,2.9v15H23.2z M61.4,35.1c0-4.6,3.3-6.9,9.8-6.9c2,0,3.7,0.1,5.2,0.4v-1.5
		c0-2-2-3-5.9-3c-2.5,0-4.9,0.4-7.3,1.1v-4.5c2.4-0.7,4.9-1.1,7.3-1.1c7.7,0,11.5,2.5,11.5,7.4v15.1h-2.9l-2.4-1.6
		c-2,1.1-4,1.6-6.3,1.6C64.4,42.1,61.4,39.7,61.4,35.1z M76.4,32.8c-1.4-0.3-3.2-0.4-5.2-0.4c-2.7,0-4.1,0.9-4.1,2.6
		c0,1.7,1.1,2.6,3.4,2.6c2.3,0,4.3-0.6,5.9-1.8V32.8z M87.7,42.1V19.5h4.4l0.7,2.9c2-1.9,4.1-2.9,6.3-2.9v4.6c-2.1,0-4,1-5.7,2.9
		v15.1H87.7z M102.6,15.9h4.2l0.9,3.6h5.2V24h-4.6v10.4c0,2.1,0.9,3.2,2.7,3.2h1.9v4.5h-4.6c-3.8,0-5.7-2-5.7-6.1V15.9z"/>
	<path class="st1" d="M92.2,59.7v1.1h1.1v-1.1H92.2z M88.6,58.1h1.9c0-0.6-0.3-1-0.9-1C88.9,57.1,88.6,57.4,88.6,58.1z M89.7,56.2
		c1.5,0,2.1,0.9,1.9,2.7h-3c0,0.6,0.5,0.9,1.5,0.9c0.5,0,0.9,0,1.4-0.1v0.9c-0.4,0.1-0.9,0.1-1.5,0.1c-1.6,0-2.5-0.8-2.5-2.3
		C87.4,57,88.2,56.2,89.7,56.2z M84.8,55.5h0.8l0.2,0.7h1.1v0.9H86v2.1c0,0.4,0.2,0.6,0.5,0.6h0.4v0.9H86c-0.8,0-1.1-0.4-1.1-1.2
		V55.5z M79.6,60.8v-4.5h0.9l0.1,0.6c0.6-0.4,1.1-0.6,1.7-0.6c1,0,1.6,0.6,1.6,1.7v2.9h-1.1v-2.9c0-0.5-0.2-0.8-0.7-0.8
		c-0.4,0-0.8,0.2-1.2,0.6v3H79.6z M75.8,58.1h1.9c0-0.6-0.3-1-0.9-1C76.2,57.1,75.9,57.4,75.8,58.1z M77,56.2c1.5,0,2.1,0.9,1.9,2.7
		h-3c0,0.6,0.5,0.9,1.5,0.9c0.5,0,0.9,0,1.4-0.1v0.9c-0.4,0.1-0.9,0.1-1.5,0.1c-1.6,0-2.5-0.8-2.5-2.3C74.7,57,75.5,56.2,77,56.2z
		 M74,56.4c-0.7-0.1-1.4-0.2-1.9-0.2c-1.7,0-2.5,0.7-2.5,2.2c0,1.5,0.7,2.2,2.2,2.2c0.4,0,0.8-0.1,1.1-0.2c0,0.7-0.4,1-1.3,1
		c-0.6,0-1.1-0.1-1.5-0.2v0.9c0.4,0.1,0.9,0.2,1.5,0.2c1.6,0,2.4-0.5,2.4-1.6V56.4z M72.8,59.5c-0.3,0.2-0.7,0.2-1.1,0.2
		c-0.7,0-1-0.4-1-1.3c0-0.9,0.4-1.3,1.2-1.3c0.4,0,0.7,0,0.9,0.1V59.5z M68.8,56.2v4.5h-1.1v-4.5H68.8z M68.8,54.6v0.9h-1.1v-0.9
		H68.8z M65.5,54.6v6.2h1.1v-6.2H65.5z M61.8,58.1h1.9c0-0.6-0.3-1-0.9-1C62.1,57.1,61.8,57.4,61.8,58.1z M62.9,56.2
		c1.5,0,2.1,0.9,1.9,2.7h-3c0,0.6,0.5,0.9,1.5,0.9c0.5,0,0.9,0,1.4-0.1v0.9c-0.4,0.1-0.9,0.1-1.5,0.1c-1.6,0-2.5-0.8-2.5-2.3
		C60.6,57,61.4,56.2,62.9,56.2z M58,55.5h0.8l0.2,0.7h1.1v0.9h-0.9v2.1c0,0.4,0.2,0.6,0.5,0.6h0.4v0.9h-0.9c-0.8,0-1.1-0.4-1.1-1.2
		V55.5z M52.8,60.8v-4.5h0.9l0.1,0.6c0.6-0.4,1.1-0.6,1.7-0.6c1,0,1.6,0.6,1.6,1.7v2.9h-1.1v-2.9c0-0.5-0.2-0.8-0.8-0.8
		c-0.4,0-0.8,0.2-1.2,0.6v3H52.8z M51.8,56.2v4.5h-1.1v-4.5H51.8z M51.8,54.6v0.9h-1.1v-0.9H51.8z M46.2,58.9
		c-0.3-0.1-0.6-0.1-1.1-0.1c-0.5,0-0.8,0.2-0.8,0.5c0,0.3,0.2,0.5,0.7,0.5c0.5,0,0.9-0.1,1.2-0.4V58.9z M43.2,59.3
		c0-0.9,0.7-1.4,2-1.4c0.4,0,0.7,0,1.1,0.1v-0.3c0-0.4-0.4-0.6-1.2-0.6c-0.5,0-1,0.1-1.5,0.2v-0.9c0.5-0.1,1-0.2,1.5-0.2
		c1.6,0,2.3,0.5,2.3,1.5v3h-0.6l-0.5-0.3c-0.4,0.2-0.8,0.3-1.3,0.3C43.8,60.8,43.2,60.3,43.2,59.3z M42.4,56.2v4.5h-1.1v-4.5H42.4z
		 M42.4,54.6v0.9h-1.1v-0.9H42.4z M33.4,60.8v-4.5h0.9l0.1,0.6c0.5-0.4,1-0.6,1.6-0.6c0.6,0,1,0.2,1.2,0.6c0.6-0.4,1.1-0.6,1.6-0.6
		c1,0,1.4,0.6,1.4,1.7v2.8h-1.1v-2.9c0-0.5-0.2-0.8-0.6-0.8c-0.3,0-0.7,0.2-1.1,0.6v3h-1.1v-2.8c0-0.5-0.2-0.8-0.6-0.8
		c-0.4,0-0.7,0.2-1.1,0.6v3H33.4z M29.7,58.1h1.9c0-0.6-0.3-1-0.9-1C30.1,57.1,29.7,57.4,29.7,58.1z M30.8,56.2
		c1.5,0,2.1,0.9,1.9,2.7h-3c0,0.6,0.5,0.9,1.5,0.9c0.5,0,0.9,0,1.4-0.1v0.9c-0.4,0.1-0.9,0.1-1.5,0.1c-1.6,0-2.5-0.8-2.5-2.3
		C28.5,57,29.3,56.2,30.8,56.2z M27.8,60.5c-0.7,0.2-1.4,0.3-2.1,0.3c-1.5,0-2.3-0.8-2.3-2.4c0-1.5,0.7-2.2,2.2-2.2
		c0.4,0,0.7,0.1,1.1,0.2v-1.9h1.1V60.5z M26.7,57.4c-0.3-0.2-0.6-0.2-1.1-0.2c-0.7,0-1.1,0.4-1.1,1.2c0,0.9,0.4,1.4,1.1,1.4
		c0.4,0,0.8-0.1,1.1-0.2V57.4z M21.5,58.9c-0.3-0.1-0.6-0.1-1.1-0.1c-0.6,0-0.8,0.2-0.8,0.5c0,0.3,0.2,0.5,0.7,0.5
		c0.5,0,0.9-0.1,1.2-0.4V58.9z M18.4,59.3c0-0.9,0.7-1.4,2-1.4c0.4,0,0.7,0,1.1,0.1v-0.3c0-0.4-0.4-0.6-1.2-0.6
		c-0.5,0-1,0.1-1.5,0.2v-0.9c0.5-0.1,1-0.2,1.5-0.2c1.6,0,2.3,0.5,2.3,1.5v3H22l-0.5-0.3c-0.4,0.2-0.8,0.3-1.3,0.3
		C19.1,60.8,18.4,60.3,18.4,59.3z M18,59.7c-0.4,0.1-0.8,0.1-1.2,0.1c-1,0-1.4-0.5-1.4-1.4c0-0.9,0.5-1.3,1.4-1.3
		c0.4,0,0.8,0,1.2,0.1v-0.9c-0.4-0.1-0.8-0.1-1.3-0.1c-1.7,0-2.5,0.7-2.5,2.2c0,1.6,0.8,2.4,2.5,2.4c0.5,0,0.9,0,1.3-0.1V59.7z
		 M12.4,58.9c-0.3-0.1-0.6-0.1-1.1-0.1c-0.6,0-0.8,0.2-0.8,0.5c0,0.3,0.2,0.5,0.7,0.5c0.5,0,0.9-0.1,1.2-0.4V58.9z M9.3,59.3
		c0-0.9,0.7-1.4,2-1.4c0.4,0,0.7,0,1.1,0.1v-0.3c0-0.4-0.4-0.6-1.2-0.6c-0.5,0-1,0.1-1.5,0.2v-0.9c0.5-0.1,1-0.2,1.5-0.2
		c1.6,0,2.3,0.5,2.3,1.5v3h-0.6l-0.5-0.3c-0.4,0.2-0.8,0.3-1.3,0.3C10,60.8,9.3,60.3,9.3,59.3z M0.2,60.8l2.6-6.2H4l2.7,6.2H5.5
		l-0.8-1.7h-2l0.4-1h1.3l-1-2.3l-2,5H0.2z"/>
</g>
</svg>
