<svg width="116" height="42" viewBox="0 0 116 42" fill="none" xmlns="http://www.w3.org/2000/svg">
<g clip-path="url(#clip0_4772_1184)">
<path fill-rule="evenodd" clip-rule="evenodd" d="M75.8269 29.4243V7.73004C75.8269 0.359691 83.7598 -1.22171 89.4244 0.879212V4.984C85.5311 3.43685 81.1584 3.79081 81.1584 8.59781H87.4836V12.7197H81.1584V29.3444L75.8269 29.4243Z" fill="#FFAD12"/>
<path fill-rule="evenodd" clip-rule="evenodd" d="M100.941 5.37787H104.881L105.688 8.59776H110.587V12.7197H106.272V22.3165C106.272 24.2386 107.124 25.2015 108.827 25.2053H111.528V29.3215H106.267C102.724 29.3215 100.953 27.4775 100.953 23.7666L100.941 5.37787Z" fill="#FFAD12"/>
<path d="M96.8781 8.59784H91.5466V29.3216H96.8781V8.59784Z" fill="#FFAD12"/>
<path d="M96.8781 1.09613H91.5466V5.37219H96.8781V1.09613Z" fill="#FFAD12"/>
<path fill-rule="evenodd" clip-rule="evenodd" d="M116 29.333C113.618 33.0096 110.323 36.038 106.42 38.1366C102.518 40.2351 98.1354 41.3356 93.6804 41.3356C89.2255 41.3356 84.843 40.2351 80.9406 38.1366C77.0382 36.038 73.7427 33.0096 71.3608 29.333C76.8618 34.2885 84.8064 37.3999 93.6746 37.3999C102.543 37.3999 110.487 34.2828 116 29.333Z" fill="#FFAD12"/>
<path d="M0.65474 24.5488V21.6943C2.35427 22.3257 4.16233 22.632 5.98035 22.5963C7.47689 22.5963 8.23101 22.1282 8.23101 21.1862C8.23101 20.2442 7.72242 19.8959 6.71693 19.8959H4.20904C1.40301 19.9188 0 18.5581 0 15.814C0 12.9861 2.04996 11.5722 6.14988 11.5722C7.81919 11.5611 9.47874 11.8216 11.0604 12.3429V15.1974C9.46931 14.5761 7.76991 14.262 6.05634 14.2726C4.17007 14.2726 3.22693 14.7445 3.22693 15.6884C3.22693 16.5447 3.77645 16.9729 4.87547 16.9729H7.1086C10.1835 16.9729 11.721 18.3431 11.721 21.0834C11.721 23.9151 9.77238 25.3309 5.87512 25.3309C4.10261 25.3549 2.33839 25.0905 0.65474 24.5488ZM14.1529 25.1939V11.7035H16.8595L17.2629 13.4162C18.6101 12.3642 20.2684 11.7637 21.9922 11.7035C23.746 11.7035 24.962 12.3144 25.6927 13.5532C27.4465 12.3144 29.1067 11.7035 30.6558 11.7035C33.5749 11.7035 35.0325 13.4162 35.0286 16.8416V25.2053H31.5678V16.6989C31.5678 15.2031 30.9189 14.4552 29.6211 14.4552C28.5806 14.4552 27.4991 15.0261 26.365 16.2022V25.2053H22.8574V16.7389C22.8574 15.2145 22.2202 14.4552 20.9341 14.4552C19.8273 14.4552 18.7361 15.0376 17.6604 16.2022V25.2053L14.1529 25.1939ZM37.5365 20.9864C37.5365 18.2156 39.5377 16.8321 43.5402 16.8359C44.6227 16.8366 45.7028 16.934 46.7671 17.1271V16.2136C46.7671 15.009 45.5687 14.3982 43.1719 14.3982C41.6475 14.4013 40.1316 14.6186 38.6706 15.0433V12.3429C40.1318 11.92 41.6478 11.7046 43.1719 11.7035C47.9071 11.7035 50.2747 13.1859 50.2747 16.1508V25.2053H48.5209L47.0185 24.2519C45.8389 24.8808 44.5158 25.2087 43.1719 25.2053C39.4422 25.2053 37.5774 23.8028 37.5774 20.9978L37.5365 20.9864ZM46.7671 19.6733C45.7064 19.4867 44.6296 19.4007 43.5519 19.4164C41.8722 19.4164 41.0343 19.9302 41.0382 20.9578C41.042 21.9854 41.7436 22.5012 43.1427 22.505C44.4356 22.5422 45.7065 22.1719 46.7671 21.4488V19.6733ZM53.6536 25.2053V11.7035H56.3544L56.787 13.4162C57.2806 12.8968 57.8747 12.4781 58.5349 12.1841C59.1951 11.8902 59.9084 11.7268 60.6336 11.7035V14.4552C59.9553 14.4679 59.2884 14.6283 58.6816 14.9245C58.0749 15.2208 57.5434 15.6456 57.126 16.1679V25.2053H53.6536ZM62.7966 9.51694H65.3746L65.9066 11.7035H69.116V14.3982H66.2924V20.6096C66.2924 21.8713 66.877 22.505 67.9643 22.505H69.1335V25.2053H66.2924C63.9774 25.2053 62.818 23.9912 62.8141 21.563L62.7966 9.51694Z" fill="#656565"/>
</g>
<defs>
<clipPath id="clip0_4772_1184">
<rect width="116" height="41.3333" fill="white"/>
</clipPath>
</defs>
</svg>
